<svg width="525" height="388" viewBox="0 0 525 388" fill="none" xmlns="http://www.w3.org/2000/svg">
<path d="M113.781 65.0051L97.3701 89.3394L111.066 259.323L410.545 280.364L431.059 71.0886L113.781 65.0051Z" fill="#B1B9C4"/>
<rect width="64.9997" height="82.9498" rx="4" transform="matrix(0.867322 0.497747 -0.502257 0.864719 395.511 19.715)" fill="#F57D7D"/>
<path d="M406.244 34.0839L406.922 34.4731C407.154 34.6065 407.303 34.7067 407.367 34.7737C407.449 34.8405 407.545 34.9559 407.657 35.1198C407.807 35.3359 407.855 35.4889 407.803 35.5788L407.881 35.6233C407.933 35.5334 408.129 35.5212 408.47 35.5868C408.75 35.6378 408.933 35.678 409.019 35.7075C409.118 35.7444 409.284 35.8296 409.516 35.963L413.214 38.0868C413.524 38.2647 413.79 38.5175 414.013 38.8454L414.347 39.3371C414.569 39.6649 414.616 39.9412 414.485 40.1661L412.397 43.7641C412.266 43.9889 412.003 44.0874 411.606 44.0594L411.011 44.0174C410.614 43.9894 410.261 43.8865 409.951 43.7086L406.544 41.7516C406.208 41.5589 405.942 41.306 405.745 40.993C405.54 40.6352 405.45 40.4338 405.476 40.3888L405.399 40.3444L403.376 43.8299L401.75 42.8959L405.985 35.5988C406.05 35.4864 406.078 35.4077 406.07 35.3629C406.079 35.318 406.04 35.236 405.955 35.1168C405.869 34.9976 405.822 34.9156 405.814 34.8708C405.822 34.8259 405.859 34.7473 405.925 34.6348L406.244 34.0839ZM406.923 40.9201L409.692 42.5101C409.924 42.6435 410.075 42.725 410.143 42.7546C410.217 42.7767 410.327 42.7948 410.473 42.8091C410.62 42.8233 410.708 42.8192 410.739 42.7966C410.786 42.7739 410.843 42.7064 410.908 42.5939L412.722 39.4682C412.787 39.3558 412.816 39.2772 412.807 39.2324C412.816 39.1875 412.778 39.1054 412.692 38.9863C412.606 38.8671 412.533 38.7852 412.473 38.7406C412.417 38.6886 412.273 38.5958 412.041 38.4624L409.292 36.8835C409.059 36.7501 408.894 36.6649 408.795 36.628C408.709 36.5985 408.525 36.5583 408.245 36.5073C407.965 36.4563 407.795 36.4385 407.734 36.4537C407.674 36.469 407.611 36.5328 407.546 36.6452L405.921 39.4449C405.834 39.5948 405.902 39.8337 406.124 40.1615C406.347 40.4893 406.613 40.7422 406.923 40.9201Z" fill="#FFEFEF"/>
<path d="M422.285 44.3463L419.517 42.7563C419.285 42.6229 419.132 42.5451 419.059 42.523C418.99 42.4935 418.882 42.4716 418.735 42.4573C418.589 42.4431 418.492 42.4473 418.444 42.4699C418.414 42.4925 418.366 42.56 418.301 42.6724L416.487 45.7982C416.421 45.9106 416.384 45.9893 416.375 46.0341C416.384 46.079 416.431 46.161 416.517 46.2801C416.602 46.3993 416.673 46.4849 416.729 46.537C416.789 46.5816 416.935 46.6705 417.168 46.804L419.917 48.3829C420.149 48.5163 420.308 48.5978 420.394 48.6273C420.493 48.6642 420.683 48.7081 420.963 48.7591C421.243 48.81 421.414 48.8279 421.474 48.8127C421.535 48.7974 421.598 48.7336 421.663 48.6212L423.288 45.8215C423.375 45.6716 423.307 45.4327 423.084 45.1049C422.861 44.7771 422.595 44.5242 422.285 44.3463ZM419.692 49.3034L415.995 47.1796C415.685 47.0017 415.419 46.7489 415.196 46.421L414.862 45.9293C414.639 45.6015 414.593 45.3251 414.723 45.1003L416.812 41.5023C416.942 41.2774 417.206 41.179 417.602 41.207L418.198 41.249C418.594 41.277 418.948 41.3799 419.257 41.5578L422.665 43.5148C422.974 43.6927 423.241 43.9456 423.463 44.2734C423.669 44.6312 423.758 44.8326 423.732 44.8775L423.81 44.922L425.702 41.6614L427.328 42.5954L423.224 49.6676C423.158 49.78 423.121 49.8587 423.113 49.9036C423.121 49.9484 423.168 50.0304 423.254 50.1496C423.339 50.2688 423.378 50.3508 423.369 50.3957C423.377 50.4405 423.349 50.5191 423.284 50.6316L422.964 51.1825L422.286 50.7933C422.054 50.6599 421.897 50.5597 421.815 50.4929C421.751 50.4259 421.663 50.3105 421.552 50.1466C421.402 49.9305 421.353 49.7775 421.405 49.6876L421.328 49.6431C421.276 49.733 421.079 49.7452 420.739 49.6795C420.459 49.6286 420.269 49.5846 420.17 49.5477C420.084 49.5183 419.925 49.4368 419.692 49.3034Z" fill="#FFEFEF"/>
<path d="M429.006 48.2065L427.961 47.6061C427.837 47.4348 427.766 47.3193 427.749 47.2596C427.749 47.1998 427.799 47.0837 427.9 46.9113L428.069 46.6189L429.463 47.4195L430.285 46.0028C430.416 45.7779 430.679 45.6795 431.076 45.7075L431.671 45.7495C432.068 45.7775 432.421 45.8804 432.731 46.0583L435.054 47.3926C435.178 47.5639 435.24 47.6795 435.24 47.7393C435.257 47.799 435.216 47.9151 435.116 48.0875L434.946 48.3798L432.874 47.1901C432.629 47.0492 432.407 46.9718 432.209 46.9578C432.062 46.9436 431.965 46.9478 431.918 46.9704C431.887 46.993 431.84 47.0605 431.774 47.1729L431.089 48.3535L433.258 49.5988C433.382 49.7702 433.444 49.8857 433.444 49.9455C433.46 50.0052 433.419 50.1213 433.319 50.2937L433.149 50.586L430.632 49.1406L427.827 53.9753L426.2 53.0413L429.006 48.2065Z" fill="#FFEFEF"/>
<path d="M387.726 67.0105C387.068 66.3808 386.661 65.6608 386.592 65.0024C386.369 63.6215 387.17 62.8289 388.456 62.5144C389.667 62.2188 391.326 62.3287 393.095 62.6377C395.321 63.0553 397.581 63.6555 399.839 64.4283C402.427 63.5913 404.869 62.5923 407.153 61.4372C407.016 60.0113 407.058 58.6355 407.279 57.328C407.503 56.1647 407.929 55.1309 408.695 54.4726C409.488 53.7849 410.719 53.4649 412.412 53.9499C413.277 54.1977 414.156 54.5642 414.892 55.1253C415.261 55.4076 415.576 55.7302 415.812 56.0697C416.048 56.4093 416.2 56.7573 416.257 57.0885C416.374 57.6847 416.23 58.2221 416.001 58.6788C415.765 59.1499 415.398 59.6107 414.953 60.0595C413.905 61.1047 412.296 62.1952 410.383 63.2281C410.641 65.2812 411.139 67.3897 411.874 69.5286C413.676 70.4504 415.416 71.5038 417.058 72.6676C418.399 73.651 419.675 74.8005 420.186 75.9657C420.456 76.5859 420.496 77.1773 420.245 77.6727C420.003 78.1536 419.523 78.4916 418.91 78.7241C418.364 78.952 417.681 79.0233 416.931 78.9307C416.197 78.8275 415.426 78.5407 414.728 78.1112C413.444 77.3284 412.428 76.1569 411.64 74.9904C410.697 73.5436 409.941 72.0799 409.386 70.6286C406.615 69.2846 403.792 68.1019 400.95 67.094C399.028 67.7015 396.974 68.1528 394.809 68.4436C393.167 68.6307 391.489 68.6546 390.052 68.2525C389.216 68.0393 388.385 67.5955 387.726 67.0105ZM395.83 65.5262C395.07 65.3347 394.351 65.1801 393.688 65.0642C392.123 64.792 391.019 64.7679 390.37 64.9253C389.796 65.0638 389.641 65.3136 389.705 65.7091C389.714 65.785 389.734 65.8415 389.746 65.8745C389.797 65.8938 389.849 65.9105 389.901 65.9246C390.519 66.0989 391.629 66.1586 393.206 65.9758C394.107 65.8639 394.983 65.7139 395.83 65.5262ZM404.16 66.0152C405.585 66.5819 407.002 67.1883 408.409 67.8328C408.084 66.746 407.816 65.6677 407.607 64.6009C406.49 65.1049 405.341 65.5757 404.161 66.0128L404.16 66.0152ZM413.162 72.6388C413.524 73.3729 413.906 74.035 414.299 74.6159C414.977 75.619 415.547 76.1494 415.901 76.3626C415.992 76.4254 416.097 76.4685 416.198 76.4846C416.408 76.4992 416.596 76.4681 416.744 76.3945C416.969 76.3274 417.145 76.207 417.257 76.0436C417.288 75.9854 417.283 75.9101 417.243 75.8322C417.126 75.5644 416.669 75.0116 415.497 74.1541C414.747 73.6146 413.966 73.1087 413.161 72.6412L413.162 72.6388ZM410.251 59.6454C410.965 59.1783 411.616 58.6596 412.203 58.0925C412.59 57.7073 412.855 57.359 413.006 57.0523C413.102 56.8899 413.154 56.7034 413.159 56.5003C412.953 56.4021 412.742 56.3243 412.531 56.2692C412.139 56.1571 411.76 56.1684 411.362 56.5111C410.934 56.8857 410.584 57.5792 410.387 58.6061C410.326 58.9292 410.281 59.278 410.255 59.6477L410.251 59.6454Z" fill="#FEE0E0"/>
<rect x="213.237" y="5.48187" width="65.097" height="82.8246" rx="4" fill="#3272C0"/>
<path d="M235.559 18.9278H232.568C232.317 18.9278 232.156 18.9395 232.086 18.963C232.017 18.9747 231.919 19.0215 231.794 19.1035C231.668 19.1855 231.591 19.2557 231.564 19.3143C231.55 19.3612 231.543 19.4724 231.543 19.6481V24.5319C231.543 24.7075 231.55 24.8247 231.564 24.8832C231.591 24.9301 231.668 24.9945 231.794 25.0765C231.919 25.1585 232.017 25.2112 232.086 25.2346C232.156 25.2463 232.317 25.2521 232.568 25.2521H235.538C235.789 25.2521 235.956 25.2404 236.04 25.217C236.137 25.1936 236.312 25.1175 236.563 24.9886C236.814 24.8598 236.96 24.7661 237.002 24.7075C237.044 24.649 237.065 24.5319 237.065 24.3562V19.9819C237.065 19.7476 236.897 19.5134 236.563 19.2792C236.228 19.0449 235.893 18.9278 235.559 18.9278ZM235.789 26.4819H231.794C231.459 26.4819 231.124 26.3648 230.79 26.1305L230.288 25.7792C229.953 25.5449 229.786 25.2521 229.786 24.9008V19.2792C229.786 18.9278 229.953 18.635 230.288 18.4008L230.79 18.0494C231.124 17.8152 231.459 17.6981 231.794 17.6981H235.475C235.81 17.6981 236.144 17.8152 236.479 18.0494C236.814 18.3305 236.981 18.5062 236.981 18.5765H237.065V13.4819H238.822V24.5319C238.822 24.7075 238.829 24.8247 238.843 24.8832C238.87 24.9301 238.947 24.9945 239.073 25.0765C239.198 25.1585 239.268 25.2287 239.282 25.2873C239.31 25.3341 239.324 25.4454 239.324 25.6211V26.4819H238.592C238.341 26.4819 238.166 26.4702 238.069 26.4467C237.985 26.4116 237.859 26.3355 237.692 26.2184C237.469 26.0661 237.357 25.9197 237.357 25.7792H237.274C237.274 25.9197 237.12 26.0661 236.814 26.2184C236.563 26.3472 236.388 26.4233 236.291 26.4467C236.207 26.4702 236.04 26.4819 235.789 26.4819Z" fill="#E6F4FC"/>
<path d="M243.866 17.6981H248.886C249.221 17.6981 249.555 17.8152 249.89 18.0494L250.392 18.4008C250.727 18.635 250.894 18.9278 250.894 19.2792V24.9008C250.894 25.2521 250.727 25.5449 250.392 25.7792L249.89 26.1305C249.555 26.3648 249.221 26.4819 248.886 26.4819H243.866C243.531 26.4819 243.197 26.3648 242.862 26.1305L242.36 25.7792C242.025 25.5449 241.858 25.2521 241.858 24.9008V19.2792C241.858 18.9278 242.025 18.635 242.36 18.4008L242.862 18.0494C243.197 17.8152 243.531 17.6981 243.866 17.6981ZM249.137 24.5319V19.6481C249.137 19.4724 249.123 19.3612 249.095 19.3143C249.081 19.2557 249.012 19.1855 248.886 19.1035C248.761 19.0215 248.663 18.9747 248.593 18.963C248.524 18.9395 248.363 18.9278 248.112 18.9278H244.64C244.389 18.9278 244.229 18.9395 244.159 18.963C244.089 18.9747 243.992 19.0215 243.866 19.1035C243.741 19.1855 243.664 19.2557 243.636 19.3143C243.622 19.3612 243.615 19.4724 243.615 19.6481V24.5319C243.615 24.7075 243.622 24.8247 243.636 24.8832C243.664 24.9301 243.741 24.9945 243.866 25.0765C243.992 25.1585 244.089 25.2112 244.159 25.2346C244.229 25.2463 244.389 25.2521 244.64 25.2521H248.112C248.363 25.2521 248.524 25.2463 248.593 25.2346C248.663 25.2112 248.761 25.1585 248.886 25.0765C249.012 24.9945 249.081 24.9301 249.095 24.8832C249.123 24.8247 249.137 24.7075 249.137 24.5319Z" fill="#E6F4FC"/>
<path d="M261.786 19.9819H260.029V19.6481C260.029 19.4724 260.015 19.3612 259.987 19.3143C259.973 19.2557 259.903 19.1855 259.778 19.1035C259.652 19.0215 259.555 18.9747 259.485 18.963C259.415 18.9395 259.255 18.9278 259.004 18.9278H256.201C255.95 18.9278 255.79 18.9395 255.72 18.963C255.65 18.9747 255.552 19.0215 255.427 19.1035C255.301 19.1855 255.225 19.2557 255.197 19.3143C255.183 19.3612 255.176 19.4724 255.176 19.6481V24.5319C255.176 24.7075 255.183 24.8247 255.197 24.8832C255.225 24.9301 255.301 24.9945 255.427 25.0765C255.552 25.1585 255.65 25.2112 255.72 25.2346C255.79 25.2463 255.95 25.2521 256.201 25.2521H259.004C259.255 25.2521 259.415 25.2463 259.485 25.2346C259.555 25.2112 259.652 25.1585 259.778 25.0765C259.903 24.9945 259.973 24.9301 259.987 24.8832C260.015 24.8247 260.029 24.7075 260.029 24.5319V24.1981H261.786V24.9008C261.786 25.2521 261.618 25.5449 261.284 25.7792L260.782 26.1305C260.447 26.3648 260.112 26.4819 259.778 26.4819H255.427C255.092 26.4819 254.758 26.3648 254.423 26.1305L253.921 25.7792C253.586 25.5449 253.419 25.2521 253.419 24.9008V19.2792C253.419 18.9278 253.586 18.635 253.921 18.4008L254.423 18.0494C254.758 17.8152 255.092 17.6981 255.427 17.6981H259.778C260.112 17.6981 260.447 17.8152 260.782 18.0494L261.284 18.4008C261.618 18.635 261.786 18.9278 261.786 19.2792V19.9819Z" fill="#E6F4FC"/>
<path fill-rule="evenodd" clip-rule="evenodd" d="M228.286 30.4819C228.01 30.4819 227.786 30.7057 227.786 30.9819C227.786 31.258 228.01 31.4819 228.286 31.4819H263.286C263.562 31.4819 263.786 31.258 263.786 30.9819C263.786 30.7057 263.562 30.4819 263.286 30.4819H228.286ZM228.286 38.1459C228.01 38.1459 227.786 38.3698 227.786 38.6459C227.786 38.9221 228.01 39.1459 228.286 39.1459H258.62C258.896 39.1459 259.12 38.9221 259.12 38.6459C259.12 38.3698 258.896 38.1459 258.62 38.1459H228.286ZM227.786 46.3139C227.786 46.0378 228.01 45.8139 228.286 45.8139H258.62C258.896 45.8139 259.12 46.0378 259.12 46.3139C259.12 46.59 258.896 46.8139 258.62 46.8139H228.286C228.01 46.8139 227.786 46.59 227.786 46.3139ZM228.286 53.4819C228.01 53.4819 227.786 53.7057 227.786 53.9819C227.786 54.258 228.01 54.4819 228.286 54.4819H251.619C251.896 54.4819 252.119 54.258 252.119 53.9819C252.119 53.7057 251.896 53.4819 251.619 53.4819H228.286Z" fill="#E6F4FC"/>
<rect width="64.9656" height="82.9935" rx="4" transform="matrix(0.815719 -0.578449 0.583078 0.812416 57.0068 37.5793)" fill="#189D8D"/>
<path d="M84.3054 32.1826L82.7914 33.2571L82.5035 32.8556C82.352 32.6444 82.244 32.5191 82.1796 32.4798C82.117 32.4179 81.9963 32.376 81.8175 32.3542C81.6386 32.3323 81.5141 32.3357 81.4439 32.3642C81.3637 32.3787 81.2154 32.4627 80.9991 32.6162L78.5838 34.3303C78.3675 34.4838 78.2395 34.5959 78.1996 34.6667C78.1496 34.7234 78.1059 34.8395 78.0685 35.0148C78.031 35.1902 78.0255 35.3216 78.052 35.4091C78.0804 35.474 78.1704 35.612 78.3219 35.8233L82.5341 41.697C82.6857 41.9083 82.7927 42.0449 82.8552 42.1068C82.9196 42.1461 83.0413 42.1767 83.2201 42.1985C83.399 42.2204 83.5286 42.2241 83.6088 42.2096C83.679 42.181 83.8223 42.09 84.0386 41.9365L86.4538 40.2224C86.6701 40.0689 86.8032 39.9638 86.8532 39.9071C86.8931 39.8363 86.9317 39.7132 86.9692 39.5378C87.0066 39.3625 87.0111 39.2424 86.9827 39.1775C86.9563 39.09 86.8673 38.9406 86.7158 38.7294L86.4279 38.3279L87.9419 37.2534L88.548 38.0986C88.851 38.5211 88.9594 38.9756 88.873 39.462L88.7435 40.1916C88.6571 40.6779 88.4697 41.0235 88.1813 41.2281L84.4323 43.8888C84.1439 44.0935 83.7545 44.1573 83.2641 44.0802L82.5285 43.9647C82.0381 43.8876 81.6413 43.6378 81.3383 43.2152L76.4897 36.4541C76.1866 36.0315 76.0783 35.5771 76.1646 35.0907L76.2942 34.3611C76.3805 33.8747 76.5679 33.5292 76.8563 33.3245L80.6053 30.6639C80.8937 30.4592 81.2831 30.3954 81.7735 30.4724L82.5092 30.588C82.9996 30.6651 83.3963 30.9149 83.6993 31.3374L84.3054 32.1826Z" fill="#E7F8F4"/>
<path d="M93.3157 28.3385C93.6041 28.1339 93.9935 28.0701 94.4839 28.1471L95.2195 28.2627C95.71 28.3397 96.1067 28.5895 96.4097 29.0121L98.0764 31.3362C98.3795 31.7588 98.4878 32.2133 98.4015 32.6997L98.2719 33.4292C98.1856 33.9156 97.9982 34.2611 97.7098 34.4658L93.7084 37.3056C93.42 37.5102 93.0306 37.5741 92.5402 37.497L91.8046 37.3814C91.3142 37.3044 90.9175 37.0546 90.6144 36.632L90.0083 35.7869L91.5224 34.7124L91.8103 35.1138C91.9618 35.3251 92.0688 35.4617 92.1313 35.5236C92.1958 35.5629 92.3174 35.5934 92.4963 35.6153C92.6751 35.6371 92.8047 35.6408 92.885 35.6264C92.9552 35.5978 93.0984 35.5068 93.3147 35.3533L95.9823 33.4601C96.1986 33.3066 96.3317 33.2015 96.3817 33.1448C96.4215 33.074 96.4602 32.9509 96.4976 32.7755C96.5351 32.6002 96.5396 32.4801 96.5112 32.4152C96.4847 32.3277 96.3957 32.1783 96.2442 31.9671L95.0169 30.2556C94.9241 30.1515 94.7611 30.0759 94.5279 30.0288C94.349 30.007 94.2245 30.0103 94.1543 30.0389C94.074 30.0534 93.9258 30.1373 93.7095 30.2908L90.5552 32.5294C90.2668 32.7341 89.8774 32.7979 89.387 32.7208L88.6514 32.6052C88.161 32.5282 87.7643 32.2784 87.4612 31.8558L85.946 29.743C85.643 29.3204 85.5346 28.8659 85.621 28.3795L85.7505 27.65C85.8369 27.1636 86.0243 26.8181 86.3127 26.6134L90.1338 23.9016C90.4222 23.6969 90.8116 23.6331 91.302 23.7101L92.0376 23.8257C92.528 23.9027 92.9248 24.1526 93.2278 24.5751L93.8339 25.4203L92.3198 26.4948L92.032 26.0933C91.8804 25.882 91.7725 25.7568 91.708 25.7175C91.6455 25.6556 91.5248 25.6137 91.346 25.5918C91.1671 25.57 91.0426 25.5733 90.9724 25.6019C90.8921 25.6164 90.7438 25.7003 90.5275 25.8538L88.0402 27.6191C87.8239 27.7726 87.6958 27.8848 87.656 27.9556C87.606 28.0123 87.5623 28.1283 87.5248 28.3037C87.4874 28.479 87.4819 28.6105 87.5084 28.6979C87.5368 28.7628 87.6267 28.9009 87.7783 29.1122L88.6571 30.3376C88.8086 30.5489 88.9156 30.6855 88.9781 30.7474C89.0426 30.7867 89.1642 30.8173 89.3431 30.8391C89.5219 30.861 89.6515 30.8646 89.7318 30.8502C89.802 30.8216 89.9452 30.7306 90.1615 30.5771L93.3157 28.3385Z" fill="#E7F8F4"/>
<path d="M103.529 27.403L99.7259 17.0941L101.222 16.0324L105.662 28.8224L103.931 30.0504L93.2192 21.7119L94.7152 20.6502L103.276 27.5821C103.488 27.7507 103.639 27.8985 103.73 28.0252L103.802 27.9741C103.711 27.8473 103.62 27.6569 103.529 27.403Z" fill="#E7F8F4"/>
<path fill-rule="evenodd" clip-rule="evenodd" d="M112.776 28.6943L83.4176 49.5295L84.0004 50.3421L113.358 29.5069L112.776 28.6943ZM94.0764 43.8041L97.5738 48.681L88.602 55.0482L85.106 50.1733L84.2905 50.7521L97.4019 69.0351L98.2174 68.4564L97.9247 68.0482L106.897 61.681L107.188 62.0871L108.003 61.5084L107.712 61.1022L116.071 55.1699L116.364 55.5785L117.179 54.9997L116.886 54.5911L125.247 48.6575L125.54 49.0659L126.356 48.4871L113.244 30.2041L112.429 30.7828L115.925 35.6575L107.564 41.5911L104.068 36.7167L103.253 37.2954L106.748 42.1699L98.3893 48.1022L94.8919 43.2253L94.0764 43.8041ZM106.314 60.8683L97.3419 67.2356L93.5527 61.9518L102.525 55.5845L106.314 60.8683ZM115.488 54.3572L107.129 60.2896L103.34 55.0058L111.699 49.0734L115.488 54.3572ZM124.665 47.8448L116.304 53.7785L112.515 48.4947L120.875 42.561L124.665 47.8448ZM120.293 41.7484L116.507 36.4701L108.147 42.4038L111.932 47.682L120.293 41.7484ZM111.116 48.2608L107.331 42.9825L98.972 48.9149L102.757 54.1931L111.116 48.2608ZM101.942 54.7719L98.1565 49.4936L89.1847 55.8609L92.97 61.1391L101.942 54.7719Z" fill="#CFF1E9"/>
<path d="M162.212 74.0639L185.945 87.7227H382.054L402.04 108.832L413.282 281.429L398.293 297.571H133.483L112.248 276.462L94.7607 91.4478L107.252 74.0639H162.212Z" fill="#84AAD9" stroke="#3272C0" stroke-linejoin="bevel" stroke-dasharray="55 55"/>
<path d="M103.874 92.1776H159.857" stroke="#3272C0"/>
<path d="M213.315 344.53V351.515" stroke="#031528" stroke-width="0.7"/>
<path d="M213.315 358.498V365.483" stroke="#031528" stroke-width="0.7"/>
<path d="M216.819 355.003L223.819 355.003" stroke="#031528" stroke-width="0.7"/>
<path d="M202.819 355.003L209.819 355.003" stroke="#031528" stroke-width="0.7"/>
<rect y="-0.494432" width="2.1002" height="2.1002" transform="matrix(0.707882 0.706331 -0.707882 0.706331 212.965 353.876)" stroke="#031528" stroke-width="0.7"/>
<path d="M72.8428 266.893V273.1" stroke="#031528" stroke-width="0.7"/>
<path d="M72.8428 279.31V285.518" stroke="#031528" stroke-width="0.7"/>
<path d="M75.96 276.201L82.1816 276.201" stroke="#031528" stroke-width="0.7"/>
<path d="M63.5146 276.201L69.7363 276.201" stroke="#031528" stroke-width="0.7"/>
<rect y="-0.494383" width="1.94403" height="1.94403" transform="matrix(0.707951 0.706261 -0.707951 0.706261 72.4928 275.175)" stroke="#031528" stroke-width="0.7"/>
<path d="M459.515 318.663V324.87" stroke="#031528" stroke-width="0.7"/>
<path d="M459.515 331.08V337.287" stroke="#031528" stroke-width="0.7"/>
<path d="M462.632 327.971L468.854 327.971" stroke="#031528" stroke-width="0.7"/>
<path d="M450.187 327.971L456.408 327.971" stroke="#031528" stroke-width="0.7"/>
<rect y="-0.494383" width="1.94403" height="1.94403" transform="matrix(0.707951 0.706261 -0.707951 0.706261 459.165 326.945)" stroke="#031528" stroke-width="0.7"/>
<path d="M357.96 316.071V322.278" stroke="#031528" stroke-width="0.7"/>
<path d="M357.96 328.488V334.695" stroke="#031528" stroke-width="0.7"/>
<path d="M361.077 325.379L367.299 325.379" stroke="#031528" stroke-width="0.7"/>
<path d="M348.632 325.379L354.854 325.379" stroke="#031528" stroke-width="0.7"/>
<rect y="-0.494383" width="1.94403" height="1.94403" transform="matrix(0.707951 0.706261 -0.707951 0.706261 357.61 324.353)" stroke="#031528" stroke-width="0.7"/>
<path d="M481.659 228.069V234.276" stroke="#031528" stroke-width="0.7"/>
<path d="M481.659 240.486V246.693" stroke="#031528" stroke-width="0.7"/>
<path d="M484.776 237.377L490.998 237.377" stroke="#031528" stroke-width="0.7"/>
<path d="M472.331 237.377L478.553 237.377" stroke="#031528" stroke-width="0.7"/>
<rect y="-0.494383" width="1.94403" height="1.94403" transform="matrix(0.707951 0.706261 -0.707951 0.706261 481.309 236.351)" stroke="#031528" stroke-width="0.7"/>
<path d="M130.89 360.062V369.373" stroke="#031528" stroke-width="0.7"/>
<path d="M130.89 378.687V387.997" stroke="#031528" stroke-width="0.7"/>
<path d="M135.565 374.027L144.898 374.027" stroke="#031528" stroke-width="0.7"/>
<path d="M116.897 374.027L126.23 374.027" stroke="#031528" stroke-width="0.7"/>
<rect y="-0.494383" width="2.56483" height="2.56483" transform="matrix(0.707951 0.706261 -0.707951 0.706261 130.54 372.561)" stroke="#031528" stroke-width="0.7"/>
<path d="M0.574236 54.1813L9.22117 56.7917C10.2831 57.1122 10.8838 58.2306 10.5616 59.287L9.27424 63.5071L8.78889 65.0982C8.46665 66.1546 9.0674 67.2729 10.1293 67.5935L15.09 69.091C16.1519 69.4116 16.7526 70.5299 16.4304 71.5863L14.925 76.5212C14.6028 77.5776 15.2035 78.6959 16.2654 79.0165L21.2261 80.514C22.288 80.8346 22.8887 81.953 22.5665 83.0093L21.3285 87.0678C21.0062 88.1242 21.607 89.2426 22.6689 89.5631L26.7486 90.7947C27.8105 91.1153 28.4113 92.2337 28.089 93.29L27.1183 96.4722C26.7961 97.5286 27.3968 98.6469 28.4587 98.9675L32.5385 100.199C33.6004 100.52 34.2011 101.638 33.8789 102.694L32.1062 108.506C31.7839 109.562 32.3847 110.68 33.4466 111.001L36.6454 111.967C37.7073 112.287 38.308 113.405 37.9858 114.462L36.7478 118.52C36.4255 119.577 37.0263 120.695 38.0882 121.016L44.8107 123.045C45.8726 123.366 46.4734 124.484 46.1511 125.54L45.1311 128.884L43.8438 133.104C43.5215 134.161 44.1223 135.279 45.1842 135.6L51.0258 137.363C52.0877 137.684 52.6885 138.802 52.3662 139.858L52.1482 140.573L50.5442 145.831" stroke="#031528"/>
<path d="M471.834 108.293L469.686 99.6502C469.427 98.608 470.043 97.5467 471.08 97.2488L475.321 96.0298L476.948 95.562C477.985 95.264 478.601 94.2027 478.342 93.1605L477.094 88.137C476.835 87.0948 477.451 86.0335 478.487 85.7355L483.485 84.2992C484.522 84.0012 485.138 82.9399 484.879 81.8977L483.63 76.8742C483.371 75.832 483.987 74.7707 485.024 74.4727L489.15 73.2868C490.187 72.9888 490.803 71.9275 490.544 70.8853L489.513 66.7376C489.254 65.6954 489.87 64.6341 490.907 64.3361L494.162 63.4007C495.199 63.1027 495.815 62.0414 495.556 60.9992L494.525 56.8515C494.266 55.8093 494.882 54.748 495.919 54.45L501.787 52.7633C502.824 52.4653 503.44 51.404 503.181 50.3618L502.368 47.09C502.109 46.0478 502.725 44.9865 503.762 44.6885L507.888 43.5026C508.925 43.2046 509.541 42.1433 509.282 41.1011L507.598 34.3258C507.339 33.2836 507.955 32.2223 508.992 31.9244L512.362 30.9558L516.603 29.7368C517.64 29.4388 518.256 28.3775 517.997 27.3353L516.531 21.4359C516.272 20.3937 516.888 19.3324 517.925 19.0344L518.681 18.8171L523.909 17.3146" stroke="#031528"/>
<path d="M241.43 186.026C241.43 193.441 247.461 199.463 254.847 199.463C262.273 199.463 268.263 193.441 268.263 186.067C268.304 178.652 262.273 172.63 254.847 172.63C247.42 172.63 241.43 178.652 241.43 186.026Z" fill="#F9FAFB"/>
<path d="M243.348 186.046C243.348 186.046 243.05 177.77 251.013 174.546C246.712 178.728 245.264 179.817 243.348 186.046Z" fill="#0055A3"/>
<path d="M224.558 180.296C232.478 192.051 243.141 199.281 254.847 199.281C266.553 199.281 277.216 192.051 285.136 180.296H289.347V216.669H237.114C269.025 213.431 283.822 187.615 285.522 182.647L287.492 182.692H285.406C285.406 182.692 274.434 201.454 254.19 201.454C233.984 201.454 224.094 182.692 224.094 182.692C222.897 182.559 221.776 182.825 221.776 182.825V216.713H220.347V180.341H224.558V180.296Z" fill="#F9FAFB"/>
</svg>
