<svg width="102" height="20" viewBox="0 0 102 20" fill="none" xmlns="http://www.w3.org/2000/svg">
<path d="M2.29611 10.9317C2.29611 11.7329 2.52224 12.3295 2.9745 12.7215C3.44416 13.0965 4.11386 13.284 4.98359 13.284C5.85333 13.284 6.64479 13.1562 7.35798 12.9005C8.07116 12.6277 8.80174 12.2698 9.54971 11.8266V5.94597H11.8458V19.6504H9.54971V13.5397C8.76695 14.034 7.99288 14.426 7.22751 14.7158C6.47954 14.9885 5.57502 15.1249 4.51394 15.1249C3.08757 15.1249 1.9743 14.7584 1.17414 14.0255C0.391382 13.2925 0 12.3124 0 11.0851V5.94597H2.29611V10.9317Z" fill="#031528"/>
<path d="M21.6899 5.69029C22.8901 5.69029 23.9164 5.94597 24.7688 6.45733C25.6385 6.96869 26.2995 7.69312 26.7518 8.63061C27.2214 9.55106 27.4562 10.6334 27.4562 11.8778V13.2329H17.8804C17.9152 14.784 18.3153 15.9686 19.0807 16.7868C19.8634 17.5879 20.9506 17.9885 22.3422 17.9885C23.2293 17.9885 24.0121 17.9118 24.6905 17.7584C25.3863 17.5879 26.0994 17.3493 26.83 17.0425V19.0112C26.1168 19.3181 25.4124 19.5396 24.7166 19.676C24.0208 19.8294 23.1945 19.9061 22.2378 19.9061C20.9158 19.9061 19.7417 19.6419 18.7154 19.1135C17.7065 18.5851 16.915 17.801 16.341 16.7612C15.7844 15.7044 15.5061 14.4175 15.5061 12.9005C15.5061 11.4005 15.7583 10.1136 16.2627 9.0397C16.7846 7.96584 17.5064 7.13914 18.4284 6.5596C19.3677 5.98006 20.4549 5.69029 21.6899 5.69029ZM21.6638 7.53118C20.5679 7.53118 19.6982 7.88061 19.0546 8.57947C18.4284 9.26129 18.0544 10.2158 17.9326 11.4431H25.0558C25.0558 10.659 24.934 9.97719 24.6905 9.39765C24.447 8.81811 24.073 8.36641 23.5685 8.04255C23.0815 7.70164 22.4466 7.53118 21.6638 7.53118Z" fill="#031528"/>
<path d="M39.2878 5.94597H41.7926L35.8175 12.5425L42.2884 19.6504H39.627L33.3127 12.6959V19.6504H31.0166V5.94597H33.3127V12.5937L39.2878 5.94597Z" fill="#031528"/>
<path d="M44.9662 19.6504V0.374532H49.094C51.073 0.374532 52.6358 0.565959 53.7825 0.948814C55.014 1.32335 56.1309 1.96005 57.1332 2.85893C59.1631 4.67332 60.1781 7.05784 60.1781 10.0125C60.1781 12.9754 59.1206 15.3725 57.0058 17.2035C55.9441 18.119 54.8314 18.7557 53.6678 19.1136C52.5806 19.4715 51.0391 19.6504 49.0431 19.6504H44.9662ZM47.9347 16.9164H49.2724C50.6059 16.9164 51.7143 16.779 52.5976 16.5044C53.4809 16.2131 54.2793 15.7511 54.9928 15.1186C56.4537 13.8119 57.1841 12.1099 57.1841 10.0125C57.1841 7.89846 56.4622 6.18394 55.0183 4.86891C53.7188 3.69538 51.8035 3.10861 49.2724 3.10861H47.9347V16.9164Z" fill="#0055A3"/>
<path d="M62.9427 9.92509C62.9427 7.21182 63.9577 4.8814 65.9877 2.93383C68.0091 0.986267 70.4383 0.0124844 73.2751 0.0124844C76.078 0.0124844 78.4816 0.99459 80.4861 2.9588C82.4991 4.92301 83.5056 7.28256 83.5056 10.0375C83.5056 12.809 82.4948 15.1602 80.4734 17.0911C78.4434 19.0304 75.993 20 73.1222 20C70.5827 20 68.3021 19.1386 66.2807 17.4157C64.0554 15.5098 62.9427 13.0129 62.9427 9.92509ZM65.9367 9.96255C65.9367 12.0932 66.6671 13.8452 68.128 15.2185C69.5804 16.5918 71.2579 17.2784 73.1604 17.2784C75.2244 17.2784 76.9655 16.5793 78.384 15.181C79.8024 13.7661 80.5116 12.0433 80.5116 10.0125C80.5116 7.95672 79.8109 6.23387 78.4094 4.84395C77.0165 3.44569 75.2923 2.74657 73.2369 2.74657C71.1899 2.74657 69.4615 3.44569 68.0516 4.84395C66.6417 6.22555 65.9367 7.93175 65.9367 9.96255Z" fill="#0055A3"/>
<path d="M101.775 1.41074V4.85643C100.059 3.44985 98.2843 2.74657 96.4497 2.74657C94.4282 2.74657 92.7253 3.45818 91.3408 4.8814C89.9479 6.2963 89.2514 8.02746 89.2514 10.0749C89.2514 12.0974 89.9479 13.8036 91.3408 15.1935C92.7338 16.5834 94.441 17.2784 96.4624 17.2784C97.5071 17.2784 98.3947 17.1119 99.1252 16.779C99.5328 16.6126 99.9533 16.3878 100.386 16.1049C100.828 15.8219 101.291 15.4806 101.775 15.0811V18.5893C100.076 19.5298 98.2928 20 96.4242 20C93.6129 20 91.2134 19.0387 89.2259 17.1161C87.247 15.1769 86.2575 12.8381 86.2575 10.0999C86.2575 7.64461 87.0856 5.45568 88.7418 3.53308C90.7803 1.17769 93.4175 0 96.6535 0C98.4202 0 100.127 0.470246 101.775 1.41074Z" fill="#0055A3"/>
</svg>
