<svg width="25" height="35" viewBox="0 0 25 35" fill="none" xmlns="http://www.w3.org/2000/svg">
<rect y="0.5" width="24.0013" height="33.998" rx="4" fill="#71A7FF"/>
<path d="M6.88714 7.01351H5.3916C5.2661 7.01351 5.18592 7.01892 5.15106 7.02973C5.11619 7.03513 5.06739 7.05676 5.00464 7.09459C4.94189 7.13243 4.90354 7.16486 4.8896 7.19189C4.88263 7.21351 4.87914 7.26486 4.87914 7.34595V9.6C4.87914 9.68108 4.88263 9.73513 4.8896 9.76216C4.90354 9.78378 4.94189 9.81351 5.00464 9.85135C5.06739 9.88919 5.11619 9.91351 5.15106 9.92432C5.18592 9.92973 5.2661 9.93243 5.3916 9.93243H6.87668C7.00218 9.93243 7.08584 9.92703 7.12768 9.91622C7.17648 9.90541 7.26364 9.87027 7.38914 9.81081C7.51464 9.75135 7.58784 9.70811 7.60876 9.68108C7.62968 9.65405 7.64014 9.6 7.64014 9.51892V7.5C7.64014 7.39189 7.55647 7.28378 7.38914 7.17568C7.2218 7.06757 7.05447 7.01351 6.88714 7.01351ZM7.00218 10.5H5.00464C4.83731 10.5 4.66997 10.4459 4.50264 10.3378L4.25164 10.1757C4.08431 10.0676 4.00064 9.93243 4.00064 9.77027V7.17568C4.00064 7.01351 4.08431 6.87838 4.25164 6.77027L4.50264 6.60811C4.66997 6.5 4.83731 6.44595 5.00464 6.44595H6.8453C7.01264 6.44595 7.17997 6.5 7.3473 6.60811C7.51464 6.73784 7.5983 6.81892 7.5983 6.85135H7.64014V4.5H8.51863V9.6C8.51863 9.68108 8.52212 9.73513 8.52909 9.76216C8.54304 9.78378 8.58138 9.81351 8.64413 9.85135C8.70688 9.88919 8.74174 9.92162 8.74872 9.94865C8.76266 9.97027 8.76963 10.0216 8.76963 10.1027V10.5H8.40359C8.27809 10.5 8.19094 10.4946 8.14213 10.4838C8.1003 10.4676 8.03755 10.4324 7.95388 10.3784C7.84233 10.3081 7.78655 10.2405 7.78655 10.1757H7.74472C7.74472 10.2405 7.66802 10.3081 7.51464 10.3784C7.38914 10.4378 7.30198 10.473 7.25318 10.4838C7.21134 10.4946 7.12768 10.5 7.00218 10.5Z" fill="#E6F4FC"/>
<path d="M11.0409 6.44595H13.5509C13.7182 6.44595 13.8855 6.5 14.0529 6.60811L14.3039 6.77027C14.4712 6.87838 14.5549 7.01351 14.5549 7.17568V9.77027C14.5549 9.93243 14.4712 10.0676 14.3039 10.1757L14.0529 10.3378C13.8855 10.4459 13.7182 10.5 13.5509 10.5H11.0409C10.8736 10.5 10.7062 10.4459 10.5389 10.3378L10.2879 10.1757C10.1206 10.0676 10.0369 9.93243 10.0369 9.77027V7.17568C10.0369 7.01351 10.1206 6.87838 10.2879 6.77027L10.5389 6.60811C10.7062 6.5 10.8736 6.44595 11.0409 6.44595ZM13.6764 9.6V7.34595C13.6764 7.26486 13.6694 7.21351 13.6555 7.19189C13.6485 7.16486 13.6136 7.13243 13.5509 7.09459C13.4881 7.05676 13.4393 7.03513 13.4045 7.02973C13.3696 7.01892 13.2894 7.01351 13.1639 7.01351H11.4278C11.3023 7.01351 11.2222 7.01892 11.1873 7.02973C11.1524 7.03513 11.1036 7.05676 11.0409 7.09459C10.9781 7.13243 10.9398 7.16486 10.9258 7.19189C10.9189 7.21351 10.9154 7.26486 10.9154 7.34595V9.6C10.9154 9.68108 10.9189 9.73513 10.9258 9.76216C10.9398 9.78378 10.9781 9.81351 11.0409 9.85135C11.1036 9.88919 11.1524 9.91351 11.1873 9.92432C11.2222 9.92973 11.3023 9.93243 11.4278 9.93243H13.1639C13.2894 9.93243 13.3696 9.92973 13.4045 9.92432C13.4393 9.91351 13.4881 9.88919 13.5509 9.85135C13.6136 9.81351 13.6485 9.78378 13.6555 9.76216C13.6694 9.73513 13.6764 9.68108 13.6764 9.6Z" fill="#E6F4FC"/>
<path d="M20.0006 7.5H19.1221V7.34595C19.1221 7.26486 19.1152 7.21351 19.1012 7.19189C19.0943 7.16486 19.0594 7.13243 18.9966 7.09459C18.9339 7.05676 18.8851 7.03513 18.8502 7.02973C18.8154 7.01892 18.7352 7.01351 18.6097 7.01351H17.2083C17.0828 7.01351 17.0026 7.01892 16.9677 7.02973C16.9329 7.03513 16.8841 7.05676 16.8213 7.09459C16.7586 7.13243 16.7202 7.16486 16.7063 7.19189C16.6993 7.21351 16.6958 7.26486 16.6958 7.34595V9.6C16.6958 9.68108 16.6993 9.73513 16.7063 9.76216C16.7202 9.78378 16.7586 9.81351 16.8213 9.85135C16.8841 9.88919 16.9329 9.91351 16.9677 9.92432C17.0026 9.92973 17.0828 9.93243 17.2083 9.93243H18.6097C18.7352 9.93243 18.8154 9.92973 18.8502 9.92432C18.8851 9.91351 18.9339 9.88919 18.9966 9.85135C19.0594 9.81351 19.0943 9.78378 19.1012 9.76216C19.1152 9.73513 19.1221 9.68108 19.1221 9.6V9.44595H20.0006V9.77027C20.0006 9.93243 19.917 10.0676 19.7496 10.1757L19.4986 10.3378C19.3313 10.4459 19.164 10.5 18.9966 10.5H16.8213C16.654 10.5 16.4866 10.4459 16.3193 10.3378L16.0683 10.1757C15.901 10.0676 15.8173 9.93243 15.8173 9.77027V7.17568C15.8173 7.01351 15.901 6.87838 16.0683 6.77027L16.3193 6.60811C16.4866 6.5 16.654 6.44595 16.8213 6.44595H18.9966C19.164 6.44595 19.3313 6.5 19.4986 6.60811L19.7496 6.77027C19.917 6.87838 20.0006 7.01351 20.0006 7.17568V7.5Z" fill="#E6F4FC"/>
<path fill-rule="evenodd" clip-rule="evenodd" d="M4.5 14.5C4.22386 14.5 4 14.7239 4 15C4 15.2761 4.22386 15.5 4.5 15.5H19.5013C19.7774 15.5 20.0013 15.2761 20.0013 15C20.0013 14.7239 19.7774 14.5 19.5013 14.5H4.5ZM4.5 19.498C4.22386 19.498 4 19.7219 4 19.998C4 20.2742 4.22386 20.498 4.5 20.498H17.5011C17.7772 20.498 18.0011 20.2742 18.0011 19.998C18.0011 19.7219 17.7772 19.498 17.5011 19.498H4.5ZM4 24.998C4 24.7219 4.22386 24.498 4.5 24.498H17.5011C17.7772 24.498 18.0011 24.7219 18.0011 24.998C18.0011 25.2742 17.7772 25.498 17.5011 25.498H4.5C4.22386 25.498 4 25.2742 4 24.998ZM4.5 29.498C4.22386 29.498 4 29.7219 4 29.998C4 30.2742 4.22386 30.498 4.5 30.498H14.5008C14.777 30.498 15.0008 30.2742 15.0008 29.998C15.0008 29.7219 14.777 29.498 14.5008 29.498H4.5Z" fill="#E6F4FC"/>
</svg>
