<svg width="49" height="36" viewBox="0 0 49 36" fill="none" xmlns="http://www.w3.org/2000/svg">
<path fill-rule="evenodd" clip-rule="evenodd" d="M23.5777 11.2288C23.1692 12.0944 22.575 12.9054 21.795 13.6118L17.102 17.8622C13.8272 20.8281 8.51773 20.8281 5.24292 17.8622L0.549919 13.6118C0.364608 13.444 0.189783 13.2702 0.0254437 13.0913L10.6062 3.50843C11.8342 2.39621 13.8253 2.39621 15.0534 3.50843L23.5777 11.2288Z" fill="#189D8D"/>
<rect width="10.6075" height="1.11658" transform="matrix(-0.741195 -0.67129 -0.741195 0.67129 19.8652 12.363)" fill="#E2E8F0"/>
<rect width="10.6075" height="1.11658" transform="matrix(-0.741195 -0.67129 -0.741195 0.67129 17.3809 14.6124)" fill="#E2E8F0"/>
<rect width="10.6075" height="1.11658" transform="matrix(-0.741195 -0.67129 -0.741195 0.67129 14.8984 16.8618)" fill="#E2E8F0"/>
<path fill-rule="evenodd" clip-rule="evenodd" d="M47.5777 9.73584C47.1692 10.6015 46.575 11.4125 45.795 12.1189L41.102 16.3693C37.8272 19.3352 32.5177 19.3352 29.2429 16.3693L24.5499 12.1189C24.3646 11.9511 24.1898 11.7773 24.0254 11.5984L34.6062 2.01552C35.8342 0.903286 37.8253 0.903286 39.0534 2.01551L47.5777 9.73584Z" fill="#189D8D"/>
<rect width="10.6075" height="1.11658" transform="matrix(-0.741195 -0.67129 -0.741195 0.67129 43.8652 10.8679)" fill="#E2E8F0"/>
<rect width="10.6075" height="1.11658" transform="matrix(-0.741195 -0.67129 -0.741195 0.67129 41.3809 13.1158)" fill="#E2E8F0"/>
<rect width="10.6075" height="1.11658" transform="matrix(-0.741195 -0.67129 -0.741195 0.67129 38.8984 15.3652)" fill="#E2E8F0"/>
<path fill-rule="evenodd" clip-rule="evenodd" d="M23.6281 14.6465C24.5841 15.0164 25.4796 15.5547 26.2597 16.2612L30.9527 20.5115C34.2275 23.4775 34.2275 28.2862 30.9527 31.2522L26.2597 35.5026C26.0745 35.6703 25.8827 35.8286 25.6852 35.9773L15.1042 26.3942C13.8761 25.282 13.8761 23.4787 15.1042 22.3665L23.6281 14.6465Z" fill="#189D8D"/>
<rect width="10.6075" height="1.11658" transform="matrix(-0.741195 0.67129 0.741195 0.67129 24.8809 18.0079)" fill="#E2E8F0"/>
<rect width="10.6075" height="1.11658" transform="matrix(-0.741195 0.67129 0.741195 0.67129 27.3633 20.2587)" fill="#E2E8F0"/>
<rect width="10.6075" height="1.11658" transform="matrix(-0.741195 0.67129 0.741195 0.67129 29.8477 22.5081)" fill="#E2E8F0"/>
</svg>
